<?xml version="1.0" standalone="no"?>
<!DOCTYPE svg PUBLIC "-//W3C//DTD SVG 20010904//EN"
 "http://www.w3.org/TR/2001/REC-SVG-20010904/DTD/svg10.dtd">
<svg version="1.0" xmlns="http://www.w3.org/2000/svg"
 width="665.000000pt" height="665.000000pt" viewBox="0 0 665.000000 665.000000"
 preserveAspectRatio="xMidYMid meet">
<metadata>
Created by potrace 1.14, written by Peter Selinger 2001-2017
</metadata>
<g transform="translate(0.000000,665.000000) scale(0.100000,-0.100000)"
fill="#000000" stroke="none">
<path d="M0 3325 l0 -3325 3325 0 3325 0 0 3325 0 3325 -3325 0 -3325 0 0
-3325z m940 2128 c0 -24 -4 -43 -8 -43 -9 0 -32 -44 -32 -61 0 -6 6 -7 13 -3
9 5 9 4 0 -6 -18 -19 -30 -4 -26 32 3 27 2 30 -7 16 -6 -10 -15 -18 -20 -18
-13 0 -13 67 0 75 6 3 10 17 10 31 0 13 5 24 10 24 6 0 10 7 10 15 0 14 3 13
25 -2 19 -14 24 -27 25 -60z m-478 -372 c4 -1 10 -17 14 -36 3 -19 10 -35 15
-35 10 0 12 -93 3 -127 -6 -22 -7 -22 -34 -6 -16 9 -31 25 -33 35 -3 11 -11
16 -20 12 -12 -4 -17 6 -22 50 -4 31 -11 59 -16 62 -17 10 35 52 61 48 14 -1
28 -3 32 -3z m499 -226 c9 -25 13 -45 8 -45 -5 0 -9 6 -9 13 0 7 -5 5 -11 -5
-5 -9 -16 -15 -23 -12 -8 3 -16 0 -19 -8 -2 -7 -3 -5 -1 6 1 10 -4 29 -13 43
-15 22 -14 25 7 49 28 29 37 23 61 -41z m2509 -25 c242 -13 415 -34 545 -66
145 -36 355 -109 470 -163 100 -47 285 -162 321 -198 11 -10 45 -41 77 -68
149 -125 261 -330 282 -516 7 -64 -17 -239 -38 -284 -8 -16 -29 -60 -46 -96
-89 -183 -276 -367 -530 -519 -90 -54 -368 -193 -424 -214 -16 -5 -17 -8 -4
-20 8 -8 25 -18 39 -21 14 -4 24 -14 25 -26 1 -11 8 -27 15 -36 7 -8 17 -24
23 -36 21 -41 73 -61 160 -59 68 2 88 -2 135 -24 66 -32 128 -89 182 -167 39
-58 49 -86 88 -247 35 -142 47 -529 21 -663 -16 -81 -8 -99 42 -87 34 8 101
42 128 66 19 17 29 18 29 3 0 -22 32 -38 52 -25 14 9 25 7 49 -7 36 -20 144
-23 184 -5 19 9 31 8 49 -2 21 -11 29 -10 59 9 35 21 57 15 40 -11 -9 -17 45
19 72 46 37 38 55 69 50 90 -6 25 6 44 110 171 44 54 99 123 123 154 67 87
160 179 204 202 22 11 65 23 95 26 53 6 55 5 95 -37 41 -42 41 -42 35 -104
-20 -198 -223 -499 -482 -711 -33 -28 -91 -80 -130 -117 -98 -94 -120 -113
-200 -167 -211 -143 -653 -348 -910 -421 -16 -4 -68 -20 -115 -34 -76 -24
-328 -88 -450 -116 -219 -48 -458 -70 -780 -70 -551 0 -964 70 -1522 256 -13
5 -16 0 -14 -20 2 -14 -1 -26 -6 -26 -5 0 -8 8 -7 18 3 33 -1 40 -30 52 -33
13 -55 6 -47 -16 3 -8 1 -14 -4 -14 -6 0 -10 -9 -10 -21 0 -11 -5 -17 -10 -14
-6 4 -10 16 -9 28 5 62 5 62 -147 136 -81 39 -150 71 -154 71 -9 0 -7 -47 2
-56 4 -3 2 -18 -3 -32 -6 -17 -6 -35 1 -55 12 -37 12 -40 0 -32 -15 9 -12 -32
3 -47 11 -11 12 -16 1 -25 -9 -9 -16 -7 -28 10 -15 22 -15 22 -15 -8 0 -29 18
-65 34 -65 4 0 5 7 1 15 -3 8 0 15 6 15 10 0 4 -78 -8 -89 -8 -9 -25 16 -28
41 -4 38 -38 138 -47 138 -4 0 -12 -7 -17 -17 -9 -14 -10 -14 -16 5 -10 30
-30 28 -22 -2 5 -22 4 -23 -18 -13 -14 7 -23 20 -23 32 1 11 -2 30 -7 43 -6
17 -4 22 9 22 11 0 15 -5 12 -15 -6 -14 10 -32 19 -22 11 10 -22 90 -38 95
-14 3 -18 15 -18 53 0 39 3 47 15 43 8 -4 15 -10 15 -16 0 -5 5 -6 10 -3 11 7
-3 39 -27 63 -7 7 -13 22 -13 33 0 10 -4 19 -10 19 -5 0 -7 -16 -5 -35 4 -31
2 -35 -18 -35 -13 0 -27 -4 -33 -9 -13 -14 -41 10 -46 39 -2 18 2 25 13 24 23
-2 20 64 -5 81 -10 8 -23 12 -27 9 -5 -3 -9 0 -9 7 0 7 -3 9 -7 6 -3 -4 -11 3
-17 14 -6 12 -22 29 -36 38 -20 13 -23 14 -15 1 7 -13 6 -13 -7 -2 -9 7 -18 9
-20 5 -3 -4 -3 -3 -2 4 4 16 -44 46 -59 36 -7 -4 -7 0 2 10 13 16 7 24 -52 81
-37 35 -69 61 -72 58 -3 -3 -5 0 -5 6 0 13 -72 106 -123 159 -22 22 -38 30
-54 27 -17 -3 -24 1 -29 21 -3 14 -10 25 -16 25 -5 0 -6 5 -2 11 3 6 0 15 -7
20 -12 8 -11 12 3 22 15 12 15 16 3 38 -8 13 -20 34 -26 47 -7 12 -16 22 -21
22 -5 0 -7 4 -3 9 3 5 1 12 -5 16 -6 4 -8 11 -4 16 3 5 -6 42 -20 83 -56 164
-76 405 -47 564 18 95 83 286 134 392 99 207 323 475 490 589 39 27 130 94
201 150 88 68 151 109 197 128 l69 28 0 91 c0 258 137 502 401 716 62 50 237
157 344 211 111 55 344 131 575 187 128 31 447 76 625 89 11 0 108 -4 215 -9z
m-3163 -476 c25 -23 26 -30 30 -147 4 -103 2 -125 -11 -136 -19 -16 -32 -8
-51 33 -9 18 -27 39 -41 47 -25 13 -56 67 -69 121 -10 40 49 123 67 95 5 -8 8
-6 8 6 0 24 30 15 67 -19z m824 -444 c13 -7 19 -21 19 -45 0 -18 5 -37 10 -40
15 -9 12 -52 -5 -85 -14 -26 -21 -30 -58 -30 -67 0 -76 32 -46 152 9 34 18 48
33 51 12 2 22 5 24 6 2 0 12 -4 23 -9z m4136 -292 c53 -46 62 -59 63 -91 0
-33 -23 -77 -63 -121 -16 -17 -36 -41 -44 -53 -8 -13 -19 -20 -24 -17 -11 6
-12 128 -3 237 8 89 15 93 71 45z m812 -994 c-7 -9 -57 -45 -111 -81 -54 -35
-98 -69 -98 -74 0 -5 -9 -9 -20 -9 -30 0 -25 14 27 64 65 64 247 154 202 100z
m74 -145 c12 -44 -29 -96 -121 -156 -128 -83 -189 -101 -229 -65 -17 15 -18
21 -8 46 8 18 15 24 19 17 11 -17 20 -14 54 19 18 17 35 30 40 30 4 0 20 6 35
13 32 15 44 37 16 30 -10 -3 -19 -9 -19 -13 0 -10 -39 -20 -44 -11 -3 4 16 18
41 31 33 17 48 21 51 12 5 -16 42 4 42 23 0 8 8 15 18 16 9 0 33 6 52 13 48
19 47 19 53 -5z m-5817 -1181 c-3 -13 -5 -25 -5 -28 -2 -9 -21 25 -21 38 0 6
7 12 15 12 10 0 14 -7 11 -22z m83 -168 c-12 -8 -89 23 -89 36 0 3 12 20 27
39 l27 34 24 -51 c20 -40 22 -52 11 -58z m26 -30 c3 -5 2 -10 -4 -10 -5 0 -13
5 -16 10 -3 6 -2 10 4 10 5 0 13 -4 16 -10z m226 -43 c-13 -13 -26 -3 -16 12
3 6 11 8 17 5 6 -4 6 -10 -1 -17z m168 -213 c2 -10 11 -24 20 -31 14 -11 14
-11 -4 -7 -34 9 -58 32 -51 49 8 21 30 14 35 -11z m79 -163 c3 -8 -1 -12 -9
-9 -7 2 -15 10 -17 17 -3 8 1 12 9 9 7 -2 15 -10 17 -17z m72 -147 c0 -8 -4
-12 -10 -9 -5 3 -10 13 -10 21 0 8 5 12 10 9 6 -3 10 -13 10 -21z m29 -61 c12
-9 13 -12 2 -13 -7 0 -11 -6 -7 -15 3 -8 1 -15 -3 -15 -13 0 -32 60 -24 73 4
7 8 6 11 -3 3 -8 12 -20 21 -27z m541 -23 c0 -5 -9 -10 -20 -10 -11 0 -20 -5
-20 -12 0 -6 -2 -9 -5 -6 -3 3 -3 13 1 22 7 17 44 23 44 6z m-410 -101 c6 -28
10 -54 10 -58 -1 -12 -33 65 -35 84 -1 11 -6 29 -10 40 -8 19 -8 19 8 3 10 -9
22 -40 27 -69z m464 35 c9 -24 7 -27 -9 -10 -17 17 -19 26 -6 26 5 0 12 -7 15
-16z m-380 -29 c3 -8 1 -15 -3 -15 -5 0 -11 7 -15 15 -3 8 -1 15 3 15 5 0 11
-7 15 -15z m-224 -15 c0 -5 -4 -10 -9 -10 -6 0 -13 5 -16 10 -3 6 1 10 9 10 9
0 16 -4 16 -10z m567 -7 c24 5 29 2 30 -14 1 -11 -5 -23 -13 -26 -8 -3 -14
-10 -14 -15 0 -6 7 -8 15 -4 10 3 15 -1 15 -13 0 -25 -37 -34 -50 -13 -8 15
-9 14 -10 -4 0 -14 8 -24 23 -29 l22 -8 -23 -4 c-19 -4 -21 -7 -11 -20 10 -12
10 -16 -1 -23 -8 -5 -16 -8 -17 -6 -2 2 -5 46 -6 99 -2 53 0 92 4 85 4 -6 19
-8 36 -5z m-518 -17 c7 -8 8 -17 3 -20 -6 -3 -12 3 -15 14 -6 24 -4 25 12 6z
m144 -6 c3 -11 1 -20 -4 -20 -5 0 -9 9 -9 20 0 11 2 20 4 20 2 0 6 -9 9 -20z
m-183 -11 c0 -6 -4 -7 -10 -4 -5 3 -10 11 -10 16 0 6 5 7 10 4 6 -3 10 -11 10
-16z"/>
<path d="M3015 4750 c-405 -44 -763 -153 -1060 -323 -149 -85 -309 -221 -406
-342 -42 -53 -105 -185 -125 -265 -24 -89 -23 -220 0 -290 18 -54 60 -139 113
-230 38 -65 195 -218 288 -280 97 -65 276 -155 405 -203 169 -63 386 -108 665
-137 61 -6 126 -14 145 -16 75 -10 431 -3 547 10 215 25 477 93 673 173 210
86 403 210 563 362 163 153 269 404 247 581 l-7 55 -3 -50 c-2 -27 -5 -75 -6
-105 -3 -83 -21 -140 -44 -140 -23 0 -45 36 -33 53 5 7 9 30 8 52 -1 22 2 52
7 66 7 19 5 40 -6 73 -9 26 -16 58 -16 72 0 14 -9 38 -19 53 -11 15 -23 40
-27 56 -10 41 -48 104 -73 121 -11 8 -21 22 -21 30 0 8 -4 14 -10 14 -5 0 -20
18 -32 40 -13 22 -37 47 -54 55 -18 8 -34 21 -37 29 -3 8 -25 18 -48 23 -37 7
-44 13 -51 41 -6 22 -15 32 -28 32 -10 0 -33 12 -50 27 -17 14 -64 43 -103 63
-119 60 -231 121 -242 131 -5 5 -28 9 -51 9 -25 0 -47 6 -54 15 -7 8 -21 15
-31 15 -11 0 -19 4 -19 9 0 13 34 24 38 12 2 -6 16 -11 30 -11 15 0 45 -5 67
-11 22 -6 51 -13 65 -15 14 -1 39 -6 55 -10 54 -12 22 3 -74 35 -121 40 -263
72 -481 107 -111 18 -580 27 -705 14z m720 -240 c195 -15 199 -16 223 -29 45
-24 13 -54 -61 -56 -29 -1 -83 -5 -122 -8 -38 -4 -116 -9 -172 -12 -89 -4
-103 -3 -103 11 0 10 -7 14 -22 12 -14 -2 -22 -9 -20 -19 1 -10 -16 -22 -55
-38 -32 -12 -81 -33 -109 -47 -28 -13 -59 -24 -68 -24 -25 0 -341 -107 -403
-137 -29 -13 -53 -28 -53 -33 0 -5 -14 -12 -32 -15 -18 -4 -39 -11 -48 -16 -8
-4 -46 -22 -85 -39 -136 -61 -160 -75 -170 -98 -5 -12 -17 -24 -25 -27 -20 -6
-72 -93 -64 -107 4 -6 2 -13 -3 -17 -5 -3 -16 -24 -24 -46 -14 -36 -14 -44 -2
-62 11 -16 12 -30 5 -56 -7 -25 -6 -52 4 -94 8 -32 12 -71 9 -88 -8 -52 4 -59
68 -35 76 29 85 46 57 119 -18 48 -21 75 -18 157 3 87 6 101 24 116 12 10 25
29 28 43 11 45 162 165 256 206 14 6 38 17 55 24 42 20 188 75 197 75 5 0 8
-7 8 -15 0 -11 12 -15 45 -15 43 0 44 -1 33 -20 -7 -11 -28 -27 -46 -36 -96
-45 -223 -158 -258 -228 -14 -28 -34 -67 -45 -87 -15 -27 -20 -61 -23 -141 -3
-117 -7 -112 61 -82 48 21 57 47 55 144 -2 92 7 130 51 197 15 24 27 46 27 51
0 5 30 24 66 43 80 41 167 48 203 15 45 -41 18 -241 -39 -290 -15 -12 -30 -33
-33 -47 l-6 -25 92 4 c51 2 119 -1 152 -8 33 -7 87 -16 120 -21 199 -27 265
-41 295 -62 23 -16 23 -16 -26 -46 -26 -17 -54 -32 -61 -32 -7 -1 -16 -2 -20
-3 -93 -23 -141 -28 -257 -23 -129 5 -277 31 -367 62 -33 12 -63 15 -124 10
-93 -8 -110 -15 -39 -16 59 -1 66 -2 129 -24 56 -19 142 -42 165 -44 8 0 63
-9 121 -20 61 -11 155 -20 223 -20 122 -1 151 -7 122 -23 -31 -18 -15 -24 37
-15 28 5 67 15 85 23 18 8 41 14 52 14 10 0 20 3 22 8 10 23 100 78 160 98 85
29 133 35 155 19 15 -11 14 -14 -8 -26 -13 -8 -33 -20 -44 -26 -145 -86 -339
-163 -445 -178 -25 -3 -80 -12 -124 -20 -94 -18 -384 -20 -489 -4 -84 13 -342
96 -429 139 -47 23 -192 -20 -172 -51 3 -5 10 -7 15 -4 5 4 26 -7 46 -24 21
-17 48 -31 61 -31 12 0 25 -7 28 -15 7 -16 64 -48 64 -35 0 10 62 -11 72 -25
5 -6 8 -5 8 3 0 6 8 12 18 12 13 0 14 -2 3 -9 -9 -6 -2 -10 25 -15 62 -10 69
-12 82 -20 7 -4 20 -5 29 -2 9 4 20 1 25 -6 6 -10 8 -10 8 0 0 6 9 12 20 12
11 0 19 -5 17 -11 -3 -15 16 -18 168 -25 120 -6 202 0 284 23 17 4 22 3 17 -5
-4 -7 -3 -12 3 -12 5 0 11 4 13 9 4 11 88 21 88 10 0 -5 36 -9 81 -9 86 0 122
-11 113 -35 -8 -20 3 -19 37 6 16 11 29 29 29 39 0 21 27 30 93 30 52 0 57 -9
27 -47 -21 -27 -52 -47 -135 -88 -32 -16 -43 -25 -29 -25 30 0 175 74 239 122
81 60 71 81 -30 66 -27 -4 -79 -10 -115 -13 l-65 -5 45 15 c219 77 416 136
443 133 44 -4 45 -28 1 -69 -20 -19 -47 -43 -59 -55 -28 -25 -53 -36 -57 -24
-2 5 -18 -5 -36 -21 -55 -49 -29 -48 53 4 65 40 165 128 181 159 18 36 18 48
-3 48 -23 0 -5 17 27 24 39 9 53 -5 45 -48 -15 -78 -142 -189 -323 -283 -32
-17 -51 -32 -48 -40 3 -8 -2 -13 -14 -13 -11 0 -20 -5 -20 -11 0 -7 7 -8 18
-4 9 4 27 10 40 12 12 3 22 9 22 13 0 4 9 10 21 13 12 3 18 10 14 16 -3 6 0 9
9 5 8 -3 32 4 55 15 48 25 73 27 65 6 -7 -18 0 -19 43 -3 34 12 44 28 18 28
-22 0 -18 9 12 34 39 30 73 47 73 35 0 -6 5 -7 10 -4 6 3 10 13 10 21 0 9 -5
12 -12 8 -7 -4 -8 -3 -4 4 4 6 14 8 23 5 12 -5 14 -3 8 7 -5 8 -3 11 6 8 14
-5 59 34 59 52 0 15 17 12 24 -5 3 -8 1 -15 -4 -15 -6 0 -10 -7 -10 -15 0 -9
-11 -21 -25 -27 -14 -6 -25 -16 -25 -22 0 -6 -11 -24 -25 -39 -23 -24 -37 -31
-57 -28 -4 0 -9 -7 -12 -17 -3 -9 -27 -29 -53 -42 -27 -14 -49 -28 -51 -32 -2
-5 -8 -8 -14 -8 -6 0 -52 -16 -102 -35 -84 -32 -104 -41 -176 -74 -44 -20
-146 -49 -196 -56 -27 -4 -53 -11 -59 -15 -5 -4 -39 -11 -75 -15 -36 -4 -83
-9 -105 -12 -217 -26 -558 -12 -661 27 -14 6 -42 10 -64 10 -21 0 -51 7 -66
15 -16 8 -39 15 -51 15 -12 0 -25 5 -28 10 -3 6 -16 10 -28 10 -13 0 -31 6
-42 14 -11 7 -38 16 -60 20 -22 4 -73 23 -113 42 -41 19 -78 34 -82 34 -15 0
-143 70 -210 115 -74 50 -71 48 -126 95 -22 19 -50 42 -62 50 -31 20 -97 117
-129 187 -24 52 -27 70 -27 178 -1 119 -1 121 37 200 22 44 53 109 70 145 17
35 50 86 74 112 87 92 291 208 453 257 41 12 118 36 170 53 103 33 160 43 350
59 69 6 140 13 158 17 47 10 493 4 647 -8z m449 -86 c45 -14 114 -41 154 -60
40 -18 78 -34 86 -34 7 0 21 -9 31 -20 16 -18 16 -22 2 -42 -18 -27 -97 -74
-97 -57 0 6 8 13 18 16 15 4 18 11 13 40 -3 20 -13 39 -21 44 -47 25 -163 62
-214 70 -58 8 -105 32 -114 57 -6 20 54 14 142 -14z m-21 -97 c57 -25 48 -40
-20 -33 -47 5 -53 4 -33 -5 119 -53 140 -78 115 -141 -10 -25 12 -23 27 2 8
12 23 20 38 20 l25 -1 -27 -24 c-16 -13 -24 -26 -19 -30 5 -3 12 -1 15 4 12
18 100 -9 134 -42 31 -29 33 -35 28 -77 -6 -45 -6 -45 9 -16 8 15 15 37 15 47
0 25 26 24 40 0 41 -78 -61 -189 -220 -239 -49 -15 -192 -33 -267 -34 -35 0
-63 -4 -63 -9 0 -21 215 -1 340 31 181 46 242 86 260 176 8 38 8 59 1 73 -19
34 -12 36 19 6 26 -25 30 -36 30 -81 0 -46 -5 -58 -37 -97 -128 -151 -537
-222 -908 -156 -178 31 -272 30 -437 -7 -49 -11 -29 10 45 47 97 48 129 94
145 210 16 112 56 192 129 259 99 91 198 130 353 139 124 7 211 0 263 -22z
m-2406 -137 c-3 -11 -1 -20 4 -20 4 0 6 -6 3 -14 -5 -12 -11 -13 -30 -4 -37
17 -31 58 9 58 14 0 18 -5 14 -20z m-115 -110 c23 -21 47 -79 40 -98 -2 -7
-14 -12 -28 -12 -16 0 -28 -9 -39 -31 -15 -28 -15 -33 -1 -54 23 -36 20 -42
-29 -64 -40 -18 -44 -23 -44 -53 1 -40 -6 -70 -21 -97 -9 -18 -7 -25 13 -44
13 -12 27 -34 30 -48 7 -26 42 -49 76 -49 21 0 35 -23 36 -61 0 -19 -3 -25
-16 -22 -10 3 -18 -3 -22 -18 -8 -30 -1 -39 31 -39 18 0 37 -12 57 -36 17 -19
38 -44 48 -55 9 -10 17 -25 17 -33 0 -8 5 -18 12 -22 7 -5 8 -3 3 6 -5 9 -4
11 3 6 7 -4 12 -17 12 -29 0 -25 26 -51 61 -62 13 -4 40 -21 60 -36 20 -16 41
-29 45 -29 5 0 2 5 -6 10 -11 7 -11 10 -2 10 7 0 10 5 7 10 -10 16 11 12 25
-5 6 -8 9 -18 6 -24 -7 -11 50 -71 68 -71 7 0 31 -9 54 -20 27 -13 51 -18 67
-14 15 4 25 2 25 -5 0 -6 -4 -11 -9 -11 -4 0 -6 -11 -3 -25 2 -15 0 -25 -7
-25 -6 0 -11 -4 -11 -10 0 -5 9 -10 21 -10 15 0 19 5 15 15 -4 10 1 15 14 15
11 0 20 5 20 10 0 6 6 10 14 10 13 0 13 -4 1 -27 -19 -35 -10 -42 15 -13 20
23 20 23 41 4 12 -10 22 -17 23 -15 0 2 19 -4 41 -13 22 -10 52 -15 66 -12 17
3 31 -1 42 -15 9 -10 24 -19 33 -19 13 0 14 -3 4 -15 -16 -19 -6 -23 84 -29
52 -4 73 -10 88 -25 21 -23 39 -26 54 -11 6 6 17 8 25 5 18 -7 43 -45 29 -45
-5 0 -10 5 -10 11 0 8 -4 8 -15 -1 -8 -6 -19 -9 -25 -5 -6 4 -17 2 -24 -4 -9
-8 -19 -5 -35 11 -20 18 -28 19 -58 10 -33 -10 -35 -9 -45 19 -5 16 -13 29
-16 29 -17 -1 -34 -19 -28 -29 5 -7 -2 -9 -21 -6 -15 2 -49 6 -75 9 -26 3 -56
10 -65 15 -10 5 -56 19 -103 31 -192 52 -456 199 -598 335 -82 78 -162 179
-162 203 0 5 -14 29 -30 54 -53 80 -71 154 -66 271 8 181 23 232 91 312 25 29
45 59 45 67 0 12 18 38 27 38 2 0 13 -9 25 -20z m1505 -406 c-3 -3 -12 -4 -19
-1 -8 3 -5 6 6 6 11 1 17 -2 13 -5z m1476 -107 c-10 -20 -21 -37 -25 -37 -16
0 -8 63 10 76 26 20 33 2 15 -39z m384 -48 c1 -11 -5 -23 -13 -26 -7 -3 -12
-9 -9 -13 2 -4 -5 -16 -17 -26 -12 -11 -18 -14 -15 -7 4 6 2 13 -4 15 -7 2 -1
15 14 31 15 14 27 31 27 37 0 19 16 10 17 -11z m-406 -22 c-1 -4 -1 -14 -1
-23 0 -8 -4 -12 -10 -9 -13 8 -13 48 1 43 6 -2 10 -7 10 -11z m-11 -58 c0 -14
-18 -48 -41 -78 -18 -23 -19 -23 -19 -3 0 11 11 34 25 50 13 16 22 32 18 36
-3 3 -1 6 5 6 7 0 12 -5 12 -11z m347 -31 c-3 -7 -5 -2 -5 12 0 14 2 19 5 13
2 -7 2 -19 0 -25z m-24 -42 c3 -8 3 -17 0 -20 -9 -9 -34 15 -27 25 8 13 21 11
27 -5z m-26 -41 c-4 -8 -15 -15 -26 -15 -24 0 -18 27 7 33 22 4 26 1 19 -18z
m-62 -45 c-3 -5 -1 -10 6 -10 7 0 2 -11 -11 -25 -28 -30 -46 -32 -46 -5 0 11
4 20 9 20 5 0 15 7 23 15 17 17 28 20 19 5z m-1075 -60 c0 -5 -5 -10 -11 -10
-5 0 -7 5 -4 10 3 6 8 10 11 10 2 0 4 -4 4 -10z m1004 -17 c-5 -46 -64 -82
-78 -48 -3 8 -1 15 4 15 6 0 10 -5 10 -11 0 -13 19 6 43 44 22 34 25 34 21 0z
m-1061 0 c-7 -2 -19 -2 -25 0 -7 3 -2 5 12 5 14 0 19 -2 13 -5z m-656 -29 c-3
-3 -12 -4 -19 -1 -8 3 -5 6 6 6 11 1 17 -2 13 -5z m1463 -144 c0 -5 -7 -10
-15 -10 -8 0 -15 -8 -15 -19 0 -26 -35 -34 -37 -9 -1 12 3 18 11 15 7 -3 18 4
24 14 13 20 32 26 32 9z m-85 -50 c3 -5 -1 -10 -9 -10 -9 0 -16 5 -16 10 0 6
4 10 9 10 6 0 13 -4 16 -10z m-31 -29 c-10 -1 -26 -9 -35 -17 -15 -13 -29 -10
-29 7 0 5 12 15 28 23 21 11 30 12 41 3 12 -10 11 -13 -5 -16z m-1468 -227
c-6 -16 -66 -20 -66 -4 0 12 33 46 51 52 15 5 24 -24 15 -48z m194 -19 c0 -20
-11 -24 -38 -12 -15 6 -28 12 -30 13 -2 1 0 13 3 27 l7 26 29 -21 c16 -12 29
-27 29 -33z m70 41 c0 -3 -4 -8 -10 -11 -5 -3 -10 -1 -10 4 0 6 5 11 10 11 6
0 10 -2 10 -4z m249 -38 c-7 -13 -14 -18 -16 -12 -2 7 -14 10 -26 7 -21 -4
-22 -4 -3 11 11 9 28 16 38 16 16 0 17 -3 7 -22z"/>
<path d="M2716 4193 c-11 -11 -6 -23 9 -23 8 0 15 4 15 9 0 13 -16 22 -24 14z"/>
<path d="M2090 3360 c0 -5 5 -10 11 -10 5 0 7 5 4 10 -3 6 -8 10 -11 10 -2 0
-4 -4 -4 -10z"/>
<path d="M4030 3151 c0 -5 -8 -12 -17 -15 -11 -3 -8 -4 6 -3 24 2 44 27 22 27
-6 0 -11 -4 -11 -9z"/>
<path d="M3950 3110 c0 -5 5 -10 10 -10 6 0 10 5 10 10 0 6 -4 10 -10 10 -5 0
-10 -4 -10 -10z"/>
<path d="M2660 3100 c8 -5 20 -10 25 -10 6 0 3 5 -5 10 -8 5 -19 10 -25 10 -5
0 -3 -5 5 -10z"/>
<path d="M2735 3080 c3 -5 11 -10 16 -10 6 0 7 5 4 10 -3 6 -11 10 -16 10 -6
0 -7 -4 -4 -10z"/>
<path d="M3875 3080 c-8 -13 5 -13 25 0 13 8 13 10 -2 10 -9 0 -20 -4 -23 -10z"/>
<path d="M2782 3065 c4 -5 28 -11 53 -15 25 -4 42 -4 38 0 -11 11 -100 24 -91
15z"/>
<path d="M3770 3040 c0 -13 11 -13 30 0 12 8 11 10 -7 10 -13 0 -23 -4 -23
-10z"/>
<path d="M3887 3024 c-16 -17 -6 -31 18 -26 14 2 24 10 22 16 -4 13 -30 20
-40 10z"/>
<path d="M2948 2983 c7 -3 16 -2 19 1 4 3 -2 6 -13 5 -11 0 -14 -3 -6 -6z"/>
<path d="M3300 2960 c0 -5 5 -10 11 -10 5 0 7 5 4 10 -3 6 -8 10 -11 10 -2 0
-4 -4 -4 -10z"/>
<path d="M3801 4177 c-25 -12 -47 -28 -49 -35 -3 -10 7 -8 34 6 22 11 55 27
74 35 32 14 33 16 10 16 -14 1 -45 -9 -69 -22z"/>
<path d="M4414 3949 c-11 -19 -152 -80 -218 -95 l-61 -14 60 5 c87 7 204 56
225 95 11 21 6 28 -6 9z"/>
<path d="M1505 3570 c-3 -5 -1 -10 4 -10 6 0 11 5 11 10 0 6 -2 10 -4 10 -3 0
-8 -4 -11 -10z"/>
<path d="M1555 3510 c-3 -5 -1 -10 4 -10 6 0 11 5 11 10 0 6 -2 10 -4 10 -3 0
-8 -4 -11 -10z"/>
<path d="M1685 3311 c-7 -12 12 -24 25 -16 11 7 4 25 -10 25 -5 0 -11 -4 -15
-9z"/>
<path d="M1735 3270 c3 -5 8 -10 11 -10 2 0 4 5 4 10 0 6 -5 10 -11 10 -5 0
-7 -4 -4 -10z"/>
<path d="M1830 3130 c0 -5 5 -10 10 -10 6 0 10 5 10 10 0 6 -4 10 -10 10 -5 0
-10 -4 -10 -10z"/>
<path d="M1920 3080 c0 -5 5 -10 10 -10 6 0 10 5 10 10 0 6 -4 10 -10 10 -5 0
-10 -4 -10 -10z"/>
<path d="M2332 2878 c6 -18 28 -21 28 -4 0 9 -7 16 -16 16 -9 0 -14 -5 -12
-12z"/>
<path d="M2464 2848 c-4 -5 -1 -14 7 -18 14 -9 29 -4 29 10 0 13 -29 20 -36 8z"/>
<path d="M4454 1834 c-49 -52 -95 -94 -102 -94 -7 0 -12 14 -12 35 0 29 -4 36
-25 41 -14 3 -36 3 -49 0 -26 -6 -86 -52 -86 -66 0 -5 19 -11 43 -15 47 -8 68
-19 149 -84 32 -25 71 -56 87 -69 49 -37 174 -112 188 -112 10 0 12 23 10 98
-3 77 -10 116 -36 193 -18 53 -42 112 -54 131 l-22 35 -91 -93z"/>
<path d="M3930 1484 c-14 -7 -81 -32 -150 -55 -111 -36 -166 -58 -150 -59 3 0
64 12 135 26 72 14 155 30 185 35 64 12 67 14 50 34 -24 28 -44 34 -70 19z"/>
<path d="M1092 608 c3 -7 22 -14 44 -15 36 -2 38 -1 20 12 -25 19 -69 20 -64
3z"/>
<path d="M1123 556 c-13 -6 -23 -14 -23 -18 0 -14 48 -8 53 7 8 19 -3 23 -30
11z"/>
</g>
</svg>
